<svg width="80" height="80" viewBox="0 0 80 80" fill="none" xmlns="http://www.w3.org/2000/svg">
<circle cx="40" cy="40" r="39.5" stroke="#ABB2C4"/>
<path d="M32.5 55H28C27.2044 55 26.4413 54.6839 25.8787 54.1213C25.3161 53.5587 25 52.7956 25 52V41.5C25 40.7044 25.3161 39.9413 25.8787 39.3787C26.4413 38.8161 27.2044 38.5 28 38.5H32.5M43 35.5V29.5C43 28.3065 42.5259 27.1619 41.682 26.318C40.8381 25.4741 39.6935 25 38.5 25L32.5 38.5V55H49.42C50.1435 55.0082 50.8456 54.7546 51.3969 54.286C51.9482 53.8174 52.3115 53.1654 52.42 52.45L54.49 38.95C54.5553 38.52 54.5263 38.081 54.405 37.6634C54.2838 37.2457 54.0732 36.8594 53.7878 36.5313C53.5024 36.2031 53.1491 35.9409 52.7524 35.7628C52.3556 35.5848 51.9249 35.4951 51.49 35.5H43Z" stroke="white" stroke-width="2" stroke-linecap="round" stroke-linejoin="round"/>
</svg>
