<svg width="381" height="421" viewBox="0 0 381 421" fill="none" xmlns="http://www.w3.org/2000/svg">
<path d="M71.0369 176.551C71.0369 176.551 49.4003 132.444 103.962 73.3216C158.524 14.1991 241.308 35.3143 241.308 35.3143C241.308 35.3143 312.802 48.4526 344.317 123.529C286.933 76.6061 212.145 64.4063 151.939 92.5598C101.14 116.49 78.0923 160.598 71.0369 176.551Z" fill="url(#paint0_linear_35_1386)"/>
<path d="M17.8861 291.98C17.8861 291.98 -7.51343 200.011 35.2894 127.281C78.0923 54.5513 134.065 38.1284 134.065 38.1284C134.065 38.1284 185.805 20.7671 223.904 30.6208C262.003 40.4746 272.351 46.1053 272.351 46.1053C272.351 46.1053 324.091 70.9742 337.261 105.697C350.431 140.42 358.427 160.127 342.435 205.642C326.443 251.157 280.347 275.087 280.347 275.087C280.347 275.087 246.011 291.98 212.615 289.164C179.69 286.349 179.69 286.349 179.69 286.349L175.927 315.91L196.623 313.564L201.797 315.91C201.797 315.91 258.711 337.495 310.451 302.303C362.19 267.111 374.89 218.78 374.89 218.78C374.89 218.78 390.882 164.35 371.127 118.835C351.372 73.3204 319.387 47.9822 319.387 47.9822C319.387 47.9822 286.932 18.4209 246.481 8.09797C206.03 -2.225 178.749 -3.16345 135.476 8.09797C92.2031 19.3594 52.2224 61.1205 52.2224 61.1205C52.2224 61.1205 -0.92838 112.735 0.0123417 193.911C0.953064 275.087 17.8861 291.98 17.8861 291.98Z" fill="#1A2739"/>
<path d="M86.0883 150.743C89.3809 144.174 93.6141 137.604 98.3177 131.505C103.021 125.405 108.195 119.774 113.84 114.612C125.128 104.289 138.298 95.8434 152.88 90.2127C159.935 87.3973 167.461 85.5204 175.457 84.1128C182.983 82.7051 190.979 82.7051 198.505 82.7051C214.027 83.1743 229.078 86.4589 243.659 92.0896L248.833 94.4357C250.715 95.3742 252.126 96.3126 254.007 96.7819L256.829 98.1895C257.77 98.6588 258.711 99.128 259.181 99.5972L264.355 102.413C270.94 106.636 277.055 111.328 282.699 116.959C288.344 122.589 293.047 128.689 296.81 135.258C301.043 141.828 303.865 148.866 306.688 156.374C311.862 170.92 313.743 186.404 313.273 201.888C312.802 209.396 312.332 217.373 310.45 224.411C309.51 228.165 308.569 231.919 307.628 235.673C306.217 239.426 304.806 242.711 302.454 245.996C304.806 242.711 305.747 239.426 306.688 235.673C307.628 231.919 308.569 228.165 309.039 224.411C310.45 216.904 310.921 209.396 310.45 201.888C310.45 186.873 307.628 171.858 302.454 157.781C301.984 155.904 301.043 154.497 300.573 152.62C299.632 150.743 299.162 149.335 298.221 147.458L296.34 142.297L293.518 137.604C289.284 131.505 284.581 125.405 279.407 120.243C274.233 115.082 268.118 110.389 262.003 106.636L257.3 103.82C256.359 103.351 255.889 102.882 254.948 102.413L252.596 101.005C250.715 100.066 249.304 99.5972 247.422 98.6588L242.248 96.7819C228.137 91.6204 213.556 88.3358 198.505 87.8666C183.453 86.9281 168.401 89.2742 154.291 93.9665C140.18 99.128 127.01 106.636 115.721 116.489C103.962 126.343 94.0845 138.074 86.0883 150.743Z" fill="white"/>
<path d="M162.287 116.486C170.754 114.609 179.691 114.14 188.628 115.079C197.564 116.017 206.031 117.894 214.497 120.709C222.964 123.525 230.49 128.217 238.015 132.909C245.071 138.071 251.656 144.171 257.3 151.209C262.945 158.247 267.178 166.224 270 174.67C270.47 175.609 270.941 176.547 270.941 177.955C271.411 178.893 271.411 180.301 271.881 181.239L272.822 184.524L273.293 185.932L273.763 187.339L274.233 190.624C274.233 191.562 274.704 192.97 274.704 193.909C275.174 196.255 275.174 198.132 275.174 200.478C275.644 209.393 274.233 218.308 271.411 226.754C268.589 235.2 263.885 242.708 258.241 249.277C262.945 242.239 267.178 234.262 269.059 225.816C271.411 217.37 271.881 208.924 271.411 200.478C270 183.586 263.885 167.163 253.537 154.024C243.189 140.417 229.079 130.563 213.557 123.994C205.561 120.709 197.564 118.363 189.098 116.956C179.691 116.017 171.224 115.548 162.287 116.486Z" fill="white"/>
<path d="M17.8861 291.98C17.8861 291.98 -7.51343 200.011 35.2894 127.281C78.0923 54.5513 134.065 38.1284 134.065 38.1284C134.065 38.1284 185.805 20.7671 223.904 30.6208C262.003 40.4746 272.351 46.1053 272.351 46.1053C272.351 46.1053 324.091 70.9742 337.261 105.697C350.431 140.42 358.427 160.127 342.435 205.642C326.443 251.157 280.347 275.087 280.347 275.087C280.347 275.087 246.011 291.98 212.615 289.164C179.69 286.349 179.69 286.349 179.69 286.349L175.927 315.91L196.623 313.564L201.797 315.91C201.797 315.91 258.711 337.495 310.451 302.303C362.19 267.111 374.89 218.78 374.89 218.78C374.89 218.78 390.882 164.35 371.127 118.835C351.372 73.3204 319.387 47.9822 319.387 47.9822C319.387 47.9822 286.932 18.4209 246.481 8.09797C206.03 -2.225 178.749 -3.16345 135.476 8.09797C92.2031 19.3594 52.2224 61.1205 52.2224 61.1205C52.2224 61.1205 -0.92838 112.735 0.0123417 193.911C0.953064 275.087 17.8861 291.98 17.8861 291.98Z" fill="white"/>
<path d="M190.509 0.120117V27.8044C161.346 29.2121 134.536 38.1274 134.536 38.1274C134.536 38.1274 78.5626 54.5503 35.7598 127.28C-7.04307 199.541 17.8861 290.571 17.8861 291.979C16.9453 291.509 0.953064 273.679 0.0123417 193.91C-0.92838 112.734 52.2224 61.1195 52.2224 61.1195C52.2224 61.1195 92.2031 19.8276 135.476 8.56618C156.643 2.46625 173.576 0.120117 190.509 0.120117Z" fill="#FE612B"/>
<path d="M179.69 286.349C179.69 286.349 179.69 286.349 190.508 287.287V314.502L175.927 315.91L179.69 286.349Z" fill="#1A2739"/>
<path d="M127.01 320.132L137.828 328.578C137.828 328.578 153.35 337.493 175.927 328.578C193.801 321.54 199.916 314.501 201.797 311.686C202.268 310.748 202.738 309.809 203.679 309.34C207.912 304.178 221.552 284.002 217.789 252.094C213.556 216.902 175.927 192.033 175.927 192.033C175.927 192.033 149.587 171.387 107.725 177.957C91.7327 180.303 78.0923 187.81 67.274 196.256C45.6374 213.149 30.5858 237.079 24.4711 263.825C21.649 275.556 20.2379 289.163 22.5897 302.301L69.1554 324.824L127.01 320.132Z" fill="url(#paint1_linear_35_1386)"/>
<path d="M370.657 314.97C370.657 314.97 315.625 427.115 178.279 420.076C41.4041 412.569 22.1193 302.301 22.1193 302.301H130.302C130.302 302.301 135.947 364.708 203.679 387.231C271.411 409.753 348.55 357.2 370.657 314.97Z" fill="white"/>
<defs>
<linearGradient id="paint0_linear_35_1386" x1="164.967" y1="43.5351" x2="206.883" y2="149.492" gradientUnits="userSpaceOnUse">
<stop stop-color="#E7E8E5"/>
<stop offset="1" stop-color="#E0E1DF" stop-opacity="0"/>
</linearGradient>
<linearGradient id="paint1_linear_35_1386" x1="21.0939" y1="254.569" x2="218.479" y2="254.569" gradientUnits="userSpaceOnUse">
<stop stop-color="#15CCD8"/>
<stop offset="1" stop-color="#0A8FA4"/>
</linearGradient>
</defs>
</svg>
